{
  "title": "Dracula Untold 2014 720p HDCAM NEW SOURCE x264 Pimp4003",
  "uid": 11248421,
  "size": 1595793219,
  "categoryP": "video",
  "categoryS": "movies",
  "magnet": "?xt=urn:btih:ba8326ae75f561d3996dc6a2ae1e5f46361fa81f&amp;dn=Dracula+Untold+2014+720p+HDCAM+NEW+SOURCE+x264+Pimp4003&amp;tr=udp%3A%2F%2Ftracker.openbittorrent.com%3A80&amp;tr=udp%3A%2F%2Fopen.demonii.com%3A1337&amp;tr=udp%3A%2F%2Ftracker.coppersurfer.tk%3A6969&amp;tr=udp%3A%2F%2Fexodus.desync.com%3A6969",
  "seeders": 38,
  "leechers": 1,
  "uploader": "shawnmurthy",
  "files": -1,
  "time": 1413779696,
  "description": "PIMP4003 PROUDLY PRESENTS....A PIMP4003 EXCLUSIVE\n &lt;a href=&quot;\nhttp://i.imgur.com/fW5GLTr.jpg&quot; rel=&quot;nofollow&quot; target=&quot;_NEW&quot;&gt;\nhttp://i.imgur.com/fW5GLTr.jpg&lt;/a&gt;\n\nNEW SOURCE AND NEW VIDEO AND AUDIO...VIDEO WAS PRETTY GOOD EVEN IN THE DARK SPACES AND AUDIO IS ACTUALLY MUCH BETTER THEN MY OTHER ONE EXCEPT IT WAS A LITTLE HOLLOW FIXED THAT ............ENJOY.....PIMP4003\n &lt;a href=&quot;\nhttp://i.imgur.com/Upc2qYe.jpg&quot; rel=&quot;nofollow&quot; target=&quot;_NEW&quot;&gt;\nhttp://i.imgur.com/Upc2qYe.jpg&lt;/a&gt;\n\nFOR REQUESTS, EXCLUSIVE MOVIES AND SUPER FAST SPEEDS AND FOR SCREENSHOTS AND SAMPLE....CLICK BELOW LINK\n\nDracula Untold 2014 720p HDCAM NEW SOURCE x264 Pimp4003\n\nENJOY\n\nPIMP4003\n\n[size=200][color=blue][b]IF YOU GUYS WANT TO CHAT WITH ME OR ASK ME REQUESTS I AM ON MESSENGER YOU CAN FIND ME ON AIM....FIRST NAME PIMP4003...LAST NAME TORRENTS....THANKS[/b][/color][/size]\n\nVideo\nID                                       : 1\nFormat                                   : MPEG-4 Visual\nFormat profile                           : Simple@L3\nFormat settings, BVOP                    : No\nFormat settings, QPel                    : No\nFormat settings, GMC                     : No warppoints\nFormat settings, Matrix                  : Default (H.263)\nCodec ID                                 : 20\nDuration                                 : 1h 25mn\nBit rate                                 : 2 391 Kbps\nWidth                                    : 1 280 pixels\nHeight                                   : 536 pixels\nDisplay aspect ratio                     : 2.40:1\nFrame rate mode                          : Variable\nFrame rate                               : 59.940 fps\nMinimum frame rate                       : 59.916 fps\nMaximum frame rate                       : 60.157 fps\nColor space                              : YUV\nChroma subsampling                       : 4:2:0\nBit depth                                : 8 bits\nScan type                                : Progressive\nCompression mode                         : Lossy\nBits/(Pixel*Frame)                       : 0.058\nStream size                              : 1.42 GiB (96%)\nWriting library                          : ZJMedia MPEG Encoder\nEncoded date                             : UTC 1970-01-01 00:00:00\nTagged date                              : UTC 1970-01-01 00:00:00\n\nAudio\nID                                       : 2\nFormat                                   : AAC\nFormat/Info                              : Advanced Audio Codec\nFormat profile                           : LC\nCodec ID                                 : 40\nDuration                                 : 1h 25mn\nBit rate mode                            : Variable\nBit rate                                 : 103 Kbps\nChannel(s)                               : 2 channels\nChannel positions                        : Front: L R\nSampling rate                            : 48.0 KHz\nCompression mode                         : Lossy\nStream size                              : 62.4 MiB (4%)\nEncoded date                             : UTC 1970-01-01 00:00:00\nTagged date                              : UTC 1970-01-01 00:00:00\n &lt;a href=&quot;\nhttp://i.imgur.com/IWQMrEg.png&quot; rel=&quot;nofollow&quot; target=&quot;_NEW&quot;&gt;\nhttp://i.imgur.com/IWQMrEg.png&lt;/a&gt; &lt;a href=&quot;\nhttp://i.imgur.com/mf5x9R2.png&quot; rel=&quot;nofollow&quot; target=&quot;_NEW&quot;&gt;\nhttp://i.imgur.com/mf5x9R2.png&lt;/a&gt; &lt;a href=&quot;\nhttp://i.imgur.com/7Ewc2tD.png&quot; rel=&quot;nofollow&quot; target=&quot;_NEW&quot;&gt;\nhttp://i.imgur.com/7Ewc2tD.png&lt;/a&gt;",
  "parsed": {
    "xt": "urn:btih:ba8326ae75f561d3996dc6a2ae1e5f46361fa81f",
    "dn": "Dracula Untold 2014 720p HDCAM NEW SOURCE x264 Pimp4003",
    "tr": [
      "udp://exodus.desync.com:6969",
      "udp://open.demonii.com:1337",
      "udp://tracker.coppersurfer.tk:6969",
      "udp://tracker.openbittorrent.com:80"
    ],
    "infoHash": "ba8326ae75f561d3996dc6a2ae1e5f46361fa81f",
    "infoHashBuffer": {
      "type": "Buffer",
      "data": [
        186,
        131,
        38,
        174,
        117,
        245,
        97,
        211,
        153,
        109,
        198,
        162,
        174,
        30,
        95,
        70,
        54,
        31,
        168,
        31
      ]
    },
    "name": "Dracula Untold 2014 720p HDCAM NEW SOURCE x264 Pimp4003",
    "announce": [
      "udp://exodus.desync.com:6969",
      "udp://open.demonii.com:1337",
      "udp://tracker.coppersurfer.tk:6969",
      "udp://tracker.openbittorrent.com:80"
    ],
    "urlList": []
  },
  "previous": 39,
  "peers": 10,
  "last_updated": "2016-12-25T12:15:25.405Z"
}